<?xml version="1.0" encoding="UTF-8" standalone="no"?>
<!-- Created with Inkscape (http://www.inkscape.org/) -->

<svg
   xmlns:dc="http://purl.org/dc/elements/1.1/"
   xmlns:cc="http://creativecommons.org/ns#"
   xmlns:rdf="http://www.w3.org/1999/02/22-rdf-syntax-ns#"
   xmlns:svg="http://www.w3.org/2000/svg"
   xmlns="http://www.w3.org/2000/svg"
   xmlns:sodipodi="http://sodipodi.sourceforge.net/DTD/sodipodi-0.dtd"
   xmlns:inkscape="http://www.inkscape.org/namespaces/inkscape"
   width="210mm"
   height="297mm"
   id="svg2"
   version="1.1"
   inkscape:version="0.48.1 r9760"
   sodipodi:docname="logo.svg"
   inkscape:export-filename="logo.png"
   inkscape:export-xdpi="55.512722"
   inkscape:export-ydpi="55.512722">
  <defs
     id="defs4" />
  <sodipodi:namedview
     id="base"
     pagecolor="#ffffff"
     bordercolor="#666666"
     borderopacity="1.0"
     inkscape:pageopacity="0.0"
     inkscape:pageshadow="2"
     inkscape:zoom="1.4"
     inkscape:cx="212.7425"
     inkscape:cy="784.41869"
     inkscape:document-units="px"
     inkscape:current-layer="layer1"
     showgrid="false"
     inkscape:window-width="1920"
     inkscape:window-height="1141"
     inkscape:window-x="0"
     inkscape:window-y="33"
     inkscape:window-maximized="1" />
  <metadata
     id="metadata7">
    <rdf:RDF>
      <cc:Work
         rdf:about="">
        <dc:format>image/svg+xml</dc:format>
        <dc:type
           rdf:resource="http://purl.org/dc/dcmitype/StillImage" />
        <dc:title></dc:title>
        <dc:creator>
          <cc:Agent>
            <dc:title>Christophe Combelles</dc:title>
          </cc:Agent>
        </dc:creator>
      </cc:Work>
    </rdf:RDF>
  </metadata>
  <g
     inkscape:label="Calque 1"
     inkscape:groupmode="layer"
     id="layer1">
    <g
       id="g4391"
       transform="translate(58,0)"
       style="fill:#00f31c;fill-opacity:1"
       inkscape:export-filename="/home/dadafkas/projets/showroom/showroom/showroom/templates/static/images/on.png"
       inkscape:export-xdpi="74.722015"
       inkscape:export-ydpi="74.722015">
      <path
         style="opacity:0.44015442999999999;fill:#00f31c;fill-opacity:1;fill-rule:nonzero;stroke:none"
         d="m 137.6875,255.9375 c -7.84746,3.06223 -13.40625,10.69001 -13.40625,19.625 0,11.63743 9.42507,21.09375 21.0625,21.09375 11.63743,0 21.09375,-9.45632 21.09375,-21.09375 0,-8.92916 -5.55834,-16.55881 -13.40625,-19.625 0,2.39583 0,4.79167 0,7.1875 4.17177,2.57583 6.96875,7.17486 6.96875,12.4375 0,8.08703 -6.56922,14.65625 -14.65625,14.65625 -8.08703,0 -14.625,-6.56922 -14.625,-14.65625 0,-5.27204 2.79381,-9.86434 6.96875,-12.4375 0,-2.39583 0,-4.79167 0,-7.1875 z"
         id="path4393"
         inkscape:connector-curvature="0"
         sodipodi:nodetypes="csssccssscc" />
      <rect
         y="254.86218"
         x="141.60938"
         height="27.142857"
         width="7.4999995"
         id="rect4395"
         style="opacity:0.44015442999999999;fill:#00f31c;fill-opacity:1;fill-rule:nonzero;stroke:none" />
    </g>
    <rect
       style="fill:#de3e3e;fill-opacity:1;stroke:none"
       id="rect2989"
       width="79.802048"
       height="54.08778"
       x="-200.54582"
       y="-216.50516"
       transform="scale(-1,-1)" />
    <rect
       y="108.32951"
       x="200.54582"
       height="54.08778"
       width="79.802048"
       id="rect2991"
       style="fill:#7b3ede;fill-opacity:1;stroke-width:1.5;stroke-miterlimit:4;stroke-dasharray:none" />
    <rect
       style="fill:#deb23e;fill-opacity:1;stroke-width:1.5;stroke-miterlimit:4;stroke-dasharray:none"
       id="rect2993"
       width="79.802048"
       height="54.08778"
       x="-360.1499"
       y="-216.50516"
       transform="scale(-1,-1)" />
    <rect
       y="108.32951"
       x="360.14993"
       height="54.08778"
       width="79.802048"
       id="rect2995"
       style="fill:#de3ecd;fill-opacity:1;stroke-width:1.5;stroke-miterlimit:4;stroke-dasharray:none" />
    <rect
       y="-162.4173"
       x="-200.54582"
       height="54.08778"
       width="79.802048"
       id="rect2997"
       style="fill:#b1de3e;fill-opacity:1;stroke-width:1.5;stroke-miterlimit:4;stroke-dasharray:none"
       transform="scale(-1,-1)" />
    <rect
       style="fill:#3eded1;fill-opacity:1;stroke-width:1.5;stroke-miterlimit:4;stroke-dasharray:none"
       id="rect2999"
       width="79.802048"
       height="54.08778"
       x="200.54582"
       y="162.41739" />
    <rect
       y="-162.4173"
       x="-360.1499"
       height="54.08778"
       width="79.802048"
       id="rect3001"
       style="fill:#3ede76;fill-opacity:1;stroke-width:1.5;stroke-miterlimit:4;stroke-dasharray:none"
       transform="scale(-1,-1)" />
    <rect
       style="fill:#3e77de;fill-opacity:1;stroke-width:1.5;stroke-miterlimit:4;stroke-dasharray:none"
       id="rect3003"
       width="79.802048"
       height="54.08778"
       x="360.14993"
       y="162.41739" />
    <path
       style="fill:#ffffff;fill-opacity:1;stroke-width:1.50000000000000000;stroke-miterlimit:4;stroke-dasharray:none"
       d="m 118.1875,106.875 0,113.125 324.25,0 0,-113.125 z m 55.90625,22.46875 c 5.83006,-0.11132 7.6548,6.64341 6.84375,11.625 7.50289,-0.70038 17.19545,3.03516 19.34375,11.3125 6.0427,-11.11473 22.91707,-14.93538 33.5625,-7.40625 1.98599,2.76055 2.7698,-1.29144 4.90625,-1.90625 6.59012,-1.50902 16.57978,-3.23291 20.6875,3.875 2.78548,-5.0889 9.29738,-5.411 14.4375,-5.1875 0.0562,-3.1164 1.53784,-6.32173 4.21875,-8 7.02206,-2.13252 14.95724,-1.32927 22.3125,-1.09375 9.58422,-0.25705 18.43766,7.61802 18.3125,17.40625 8.72649,-12.54664 29.94172,-11.61884 38.0625,1.15625 6.76693,-10.75607 23.16179,-13.39354 33.3125,-5.8125 1.80878,-0.8529 4.23109,-3.22411 6.90625,-3.34375 5.37896,0.3138 10.70823,-0.99474 16.09375,-0.65625 4.92908,2.45112 10.17991,-1.79616 15.34375,0.375 9.47354,2.92807 10.88571,14.2501 9.875,22.71875 1.05862,2.50855 4.25476,5.14263 3.78125,8.65625 0.3841,7.37381 -8.13386,10.3893 -14.28125,9.4375 -5.94681,-2.09937 -12.29311,1.57887 -18.28125,-0.75 -6.04192,0.24833 -14.12815,2.55957 -18.875,-2.8125 -10.04445,6.91285 -26.50484,5.49925 -33.65625,-5.28125 -7.06407,9.53631 -23.63922,13.15991 -33.875,5.1875 -2.60755,2.66168 -6.52088,3.71675 -10.1875,3.71875 -4.21192,0.83714 -8.42945,-1.21979 -9.75,-5.5 -2.112,3.68328 -6.36596,5.59763 -10.5625,5.375 -5.67093,-0.96363 -13.4749,2.00776 -17.0625,-4.0625 -3.19121,4.92889 -11.57235,6.76546 -15.6875,1.65625 -2.36804,1.2498 -6.07265,3.08934 -9.40625,2.59375 -6.92018,1.10098 -8.15128,-6.67497 -9.03125,-11.8125 -5.16277,11.27225 -20.2354,15.19141 -31.03125,10.40625 -2.56068,0.073 -5.2932,-5.55338 -6.8125,-2.21875 -4.68081,4.74026 -12.37607,3.69183 -18.4375,3.03125 -2.38624,-1.20322 -4.09541,-1.93209 -6.46875,-0.25 -6.49541,0.95483 -15.3768,2.43449 -19.6875,-3.9375 -5.18449,4.2838 -13.29001,6.56664 -20.375,5 -3.19015,-1.49953 -5.85827,-0.7085 -9.125,-0.5625 -9.80784,-1.87408 -11.20225,-15.79175 -5.46875,-22.375 3.23095,-1.57661 -1.33371,-4.49517 -1.125,-7.21875 -3.22504,-12.6085 10.48839,-23.17763 22.28125,-21.1875 4.37403,2.0251 9.33117,-1.67139 13.53125,1.5 3.39656,-3.55535 9.32623,-3.53925 14.15625,-3.53125 0.42469,-0.0709 0.83008,-0.11758 1.21875,-0.125 z m 140.5,31.25 c 1.4e-4,0.0112 0.0214,0.0496 0.0312,0.0625 0.005,-0.005 0.0151,-0.0207 0,-0.0625 -0.0244,-0.01 -0.0314,-0.0112 -0.0312,0 z m -35.5,3.4375 c -0.37903,0.0105 -0.14932,1.74633 0,0 z"
       id="rect3070"
       inkscape:connector-curvature="0"
       sodipodi:nodetypes="cccccsccccccccccccccccccccccccccccccccccccccccssccscc"
       inkscape:export-filename="logo.png"
       inkscape:export-xdpi="49.961449"
       inkscape:export-ydpi="49.961449" />
    <text
       xml:space="preserve"
       style="font-size:16.12241936px;font-style:normal;font-weight:normal;line-height:125%;letter-spacing:0px;word-spacing:0px;fill:#ffffff;fill-opacity:1;stroke:none;font-family:Sans"
       x="123.17813"
       y="176.27408"
       id="text2985"
       sodipodi:linespacing="125%"><tspan
         sodipodi:role="line"
         id="tspan2987"
         x="123.17813"
         y="176.27408"
         style="font-size:64.92857361px;font-style:normal;font-variant:normal;font-weight:bold;font-stretch:normal;fill:#ffffff;fill-opacity:1;font-family:Nimbus Mono L;-inkscape-font-specification:Nimbus Mono L Bold">ShowRoom</tspan></text>
    <g
       style="font-size:16.12241936px;font-style:normal;font-weight:normal;line-height:125%;letter-spacing:0px;word-spacing:0px;fill:#ffffff;fill-opacity:1;stroke:none;font-family:Sans"
       id="text3017"
       transform="translate(4.5456865,20.708127)" />
    <g
       id="g3011"
       inkscape:export-filename="/home/dadafkas/projets/showroom/showroom/showroom/templates/static/images/off.png"
       inkscape:export-xdpi="74.722015"
       inkscape:export-ydpi="74.722015">
      <path
         sodipodi:nodetypes="csssccssscc"
         inkscape:connector-curvature="0"
         id="path2994"
         d="m 137.6875,255.9375 c -7.84746,3.06223 -13.40625,10.69001 -13.40625,19.625 0,11.63743 9.42507,21.09375 21.0625,21.09375 11.63743,0 21.09375,-9.45632 21.09375,-21.09375 0,-8.92916 -5.55834,-16.55881 -13.40625,-19.625 0,2.39583 0,4.79167 0,7.1875 4.17177,2.57583 6.96875,7.17486 6.96875,12.4375 0,8.08703 -6.56922,14.65625 -14.65625,14.65625 -8.08703,0 -14.625,-6.56922 -14.625,-14.65625 0,-5.27204 2.79381,-9.86434 6.96875,-12.4375 0,-2.39583 0,-4.79167 0,-7.1875 z"
         style="opacity:0.44015443;fill:#a1a1a1;fill-opacity:1;fill-rule:nonzero;stroke:none" />
      <rect
         style="opacity:0.44015443;fill:#a1a1a1;fill-opacity:1;fill-rule:nonzero;stroke:none"
         id="rect3006"
         width="7.4999995"
         height="27.142857"
         x="141.60938"
         y="254.86218" />
    </g>
  </g>
</svg>
